<?xml version="1.0" encoding="UTF-8"?>
<svg xmlns="http://www.w3.org/2000/svg" viewBox="0 0 1000 700" width="1000" height="700">
  <defs>
    <linearGradient id="userGrad" x1="0%" y1="0%" x2="0%" y2="100%">
      <stop offset="0%" style="stop-color:#48BB78;stop-opacity:1" />
      <stop offset="100%" style="stop-color:#2F855A;stop-opacity:1" />
    </linearGradient>
    <linearGradient id="eventGrad" x1="0%" y1="0%" x2="0%" y2="100%">
      <stop offset="0%" style="stop-color:#4299E1;stop-opacity:1" />
      <stop offset="100%" style="stop-color:#2B6CB0;stop-opacity:1" />
    </linearGradient>
    <linearGradient id="campaignGrad" x1="0%" y1="0%" x2="0%" y2="100%">
      <stop offset="0%" style="stop-color:#9F7AEA;stop-opacity:1" />
      <stop offset="100%" style="stop-color:#6B46C1;stop-opacity:1" />
    </linearGradient>
    <linearGradient id="notifGrad" x1="0%" y1="0%" x2="0%" y2="100%">
      <stop offset="0%" style="stop-color:#FC8181;stop-opacity:1" />
      <stop offset="100%" style="stop-color:#C53030;stop-opacity:1" />
    </linearGradient>
    <linearGradient id="analyticsGrad" x1="0%" y1="0%" x2="0%" y2="100%">
      <stop offset="0%" style="stop-color:#ED8936;stop-opacity:1" />
      <stop offset="100%" style="stop-color:#C05621;stop-opacity:1" />
    </linearGradient>
    <filter id="shadow" x="-20%" y="-20%" width="140%" height="140%">
      <feDropShadow dx="3" dy="3" stdDeviation="4" flood-opacity="0.25"/>
    </filter>
    <marker id="arrow" markerWidth="10" markerHeight="7" refX="9" refY="3.5" orient="auto">
      <polygon points="0 0, 10 3.5, 0 7" fill="#4A5568"/>
    </marker>
    <marker id="arrowGreen" markerWidth="10" markerHeight="7" refX="9" refY="3.5" orient="auto">
      <polygon points="0 0, 10 3.5, 0 7" fill="#38A169"/>
    </marker>
    <marker id="arrowBlue" markerWidth="10" markerHeight="7" refX="9" refY="3.5" orient="auto">
      <polygon points="0 0, 10 3.5, 0 7" fill="#3182CE"/>
    </marker>
    <marker id="arrowPurple" markerWidth="10" markerHeight="7" refX="9" refY="3.5" orient="auto">
      <polygon points="0 0, 10 3.5, 0 7" fill="#805AD5"/>
    </marker>
    <marker id="arrowOrange" markerWidth="10" markerHeight="7" refX="9" refY="3.5" orient="auto">
      <polygon points="0 0, 10 3.5, 0 7" fill="#DD6B20"/>
    </marker>
  </defs>
  
  <rect width="1000" height="700" fill="#f8fafc"/>
  
  <text x="500" y="40" text-anchor="middle" font-family="Arial, sans-serif" font-size="24" font-weight="bold" fill="#1a365d">Communication Inter-Services (OpenFeign)</text>
  <text x="500" y="65" text-anchor="middle" font-family="Arial, sans-serif" font-size="14" fill="#718096">Architecture des appels entre microservices</text>
  
  <rect x="70" y="250" width="180" height="120" rx="12" fill="url(#userGrad)" filter="url(#shadow)"/>
  <text x="160" y="290" text-anchor="middle" font-family="Arial, sans-serif" font-size="16" font-weight="bold" fill="white">User Service</text>
  <text x="160" y="315" text-anchor="middle" font-family="Arial, sans-serif" font-size="12" fill="white">Port: 7020</text>
  <line x1="90" y1="330" x2="230" y2="330" stroke="rgba(255,255,255,0.3)" stroke-width="1"/>
  <text x="160" y="350" text-anchor="middle" font-family="Arial, sans-serif" font-size="10" fill="white">Authentication</text>
  <text x="160" y="362" text-anchor="middle" font-family="Arial, sans-serif" font-size="10" fill="white">JWT | Users</text>
  
  <rect x="410" y="100" width="180" height="120" rx="12" fill="url(#eventGrad)" filter="url(#shadow)"/>
  <text x="500" y="140" text-anchor="middle" font-family="Arial, sans-serif" font-size="16" font-weight="bold" fill="white">Event Service</text>
  <text x="500" y="165" text-anchor="middle" font-family="Arial, sans-serif" font-size="12" fill="white">Port: 9030</text>
  <line x1="430" y1="180" x2="570" y2="180" stroke="rgba(255,255,255,0.3)" stroke-width="1"/>
  <text x="500" y="200" text-anchor="middle" font-family="Arial, sans-serif" font-size="10" fill="white">Events | Registrations</text>
  <text x="500" y="212" text-anchor="middle" font-family="Arial, sans-serif" font-size="10" fill="white">Circuit Breaker</text>
  
  <rect x="750" y="250" width="180" height="120" rx="12" fill="url(#campaignGrad)" filter="url(#shadow)"/>
  <text x="840" y="290" text-anchor="middle" font-family="Arial, sans-serif" font-size="16" font-weight="bold" fill="white">Campaign Service</text>
  <text x="840" y="315" text-anchor="middle" font-family="Arial, sans-serif" font-size="12" fill="white">Port: 9020</text>
  <line x1="770" y1="330" x2="910" y2="330" stroke="rgba(255,255,255,0.3)" stroke-width="1"/>
  <text x="840" y="350" text-anchor="middle" font-family="Arial, sans-serif" font-size="10" fill="white">Campaigns</text>
  <text x="840" y="362" text-anchor="middle" font-family="Arial, sans-serif" font-size="10" fill="white">Target Segments</text>
  
  <rect x="410" y="450" width="180" height="120" rx="12" fill="url(#notifGrad)" filter="url(#shadow)"/>
  <text x="500" y="490" text-anchor="middle" font-family="Arial, sans-serif" font-size="16" font-weight="bold" fill="white">Notification</text>
  <text x="500" y="510" text-anchor="middle" font-family="Arial, sans-serif" font-size="12" fill="white">Port: 7010</text>
  <line x1="430" y1="525" x2="570" y2="525" stroke="rgba(255,255,255,0.3)" stroke-width="1"/>
  <text x="500" y="545" text-anchor="middle" font-family="Arial, sans-serif" font-size="10" fill="white">Emails | Batch</text>
  <text x="500" y="557" text-anchor="middle" font-family="Arial, sans-serif" font-size="10" fill="white">SMTP Gmail</text>
  
  <rect x="750" y="450" width="180" height="120" rx="12" fill="url(#analyticsGrad)" filter="url(#shadow)"/>
  <text x="840" y="490" text-anchor="middle" font-family="Arial, sans-serif" font-size="16" font-weight="bold" fill="white">Analytics Service</text>
  <text x="840" y="515" text-anchor="middle" font-family="Arial, sans-serif" font-size="12" fill="white">Port: 9010</text>
  <line x1="770" y1="530" x2="910" y2="530" stroke="rgba(255,255,255,0.3)" stroke-width="1"/>
  <text x="840" y="550" text-anchor="middle" font-family="Arial, sans-serif" font-size="10" fill="white">Metrics</text>
  <text x="840" y="562" text-anchor="middle" font-family="Arial, sans-serif" font-size="10" fill="white">Statistics</text>
  
  <path d="M 160 370 Q 160 510 400 510" fill="none" stroke="#38A169" stroke-width="3" marker-end="url(#arrowGreen)"/>
  <rect x="200" y="430" width="150" height="25" rx="5" fill="#C6F6D5" stroke="#38A169" stroke-width="1"/>
  <text x="275" y="447" text-anchor="middle" font-family="Arial, sans-serif" font-size="10" fill="#276749">Welcome Notification</text>
  
  <path d="M 410 180 Q 280 180 200 250" fill="none" stroke="#3182CE" stroke-width="3" marker-end="url(#arrowBlue)"/>
  <rect x="260" y="170" width="110" height="25" rx="5" fill="#BEE3F8" stroke="#3182CE" stroke-width="1"/>
  <text x="315" y="187" text-anchor="middle" font-family="Arial, sans-serif" font-size="10" fill="#2B6CB0">Validate User</text>
  
  <path d="M 500 220 L 500 440" fill="none" stroke="#3182CE" stroke-width="3" marker-end="url(#arrowBlue)"/>
  <rect x="510" y="310" width="130" height="25" rx="5" fill="#BEE3F8" stroke="#3182CE" stroke-width="1"/>
  <text x="575" y="327" text-anchor="middle" font-family="Arial, sans-serif" font-size="10" fill="#2B6CB0">Registration Email</text>
  
  <path d="M 750 290 Q 500 250 250 290" fill="none" stroke="#805AD5" stroke-width="3" marker-end="url(#arrowPurple)"/>
  <rect x="430" y="235" width="140" height="25" rx="5" fill="#E9D8FD" stroke="#805AD5" stroke-width="1"/>
  <text x="500" y="252" text-anchor="middle" font-family="Arial, sans-serif" font-size="10" fill="#6B46C1">Validate Organizer</text>
  
  <path d="M 840 450 Q 840 350 590 180" fill="none" stroke="#DD6B20" stroke-width="3" marker-end="url(#arrowOrange)"/>
  <rect x="700" y="280" width="100" height="25" rx="5" fill="#FEEBC8" stroke="#DD6B20" stroke-width="1"/>
  <text x="750" y="297" text-anchor="middle" font-family="Arial, sans-serif" font-size="10" fill="#C05621">Get Events</text>
  
  <path d="M 840 450 L 840 380" fill="none" stroke="#DD6B20" stroke-width="3" marker-end="url(#arrowOrange)"/>
  <rect x="850" y="400" width="110" height="25" rx="5" fill="#FEEBC8" stroke="#DD6B20" stroke-width="1"/>
  <text x="905" y="417" text-anchor="middle" font-family="Arial, sans-serif" font-size="10" fill="#C05621">Get Campaigns</text>
  
  <path d="M 410 480 Q 280 430 200 370" fill="none" stroke="#E53E3E" stroke-width="3" stroke-dasharray="5,5"/>
  <rect x="260" y="400" width="120" height="25" rx="5" fill="#FED7D7" stroke="#E53E3E" stroke-width="1"/>
  <text x="320" y="417" text-anchor="middle" font-family="Arial, sans-serif" font-size="10" fill="#C53030">Validate Recipient</text>
  
  <rect x="70" y="600" width="860" height="80" rx="10" fill="white" stroke="#CBD5E0" stroke-width="2"/>
  <text x="500" y="625" text-anchor="middle" font-family="Arial, sans-serif" font-size="14" font-weight="bold" fill="#1a365d">Legende - Communications Feign</text>
  <line x1="90" y1="635" x2="910" y2="635" stroke="#E2E8F0" stroke-width="1"/>
  
  <line x1="100" y1="660" x2="140" y2="660" stroke="#38A169" stroke-width="3"/>
  <text x="150" y="664" font-family="Arial, sans-serif" font-size="10" fill="#4A5568">User Service</text>
  
  <line x1="250" y1="660" x2="290" y2="660" stroke="#3182CE" stroke-width="3"/>
  <text x="300" y="664" font-family="Arial, sans-serif" font-size="10" fill="#4A5568">Event Service</text>
  
  <line x1="420" y1="660" x2="460" y2="660" stroke="#805AD5" stroke-width="3"/>
  <text x="470" y="664" font-family="Arial, sans-serif" font-size="10" fill="#4A5568">Campaign Service</text>
  
  <line x1="600" y1="660" x2="640" y2="660" stroke="#DD6B20" stroke-width="3"/>
  <text x="650" y="664" font-family="Arial, sans-serif" font-size="10" fill="#4A5568">Analytics Service</text>
  
  <line x1="780" y1="660" x2="820" y2="660" stroke="#E53E3E" stroke-width="3" stroke-dasharray="5,5"/>
  <text x="830" y="664" font-family="Arial, sans-serif" font-size="10" fill="#4A5568">Optionnel</text>
</svg>
